<svg xmlns="http://www.w3.org/2000/svg" xmlns:xlink="http://www.w3.org/1999/xlink" width="24" height="24" viewBox="0 0 6.35 6.35"><defs><filter style="color-interpolation-filters:sRGB" id="e" x="-.091" width="1.181" y="-.064" height="1.128"><feGaussianBlur stdDeviation=".073"/></filter><filter style="color-interpolation-filters:sRGB" id="f" x="-.09" width="1.18" y="-.043" height="1.086"><feGaussianBlur stdDeviation=".073"/></filter><filter style="color-interpolation-filters:sRGB" id="b" x="-.065" width="1.13" y="-.065" height="1.13"><feGaussianBlur stdDeviation=".166"/></filter><filter style="color-interpolation-filters:sRGB" id="c" x="-.065" width="1.13" y="-.065" height="1.13"><feGaussianBlur stdDeviation=".166"/></filter><radialGradient xlink:href="#a" id="d" cx="209.269" cy="204.746" fx="209.269" fy="204.746" r="2.243" gradientUnits="userSpaceOnUse" gradientTransform="matrix(1.0513 1.0513 -1.05332 1.04926 -1.138 -142.365)"/><linearGradient id="a"><stop style="stop-color:#495076;stop-opacity:1" offset="0"/><stop style="stop-color:#2d3149;stop-opacity:1" offset="1"/></linearGradient></defs><g transform="translate(0 -290.65)"><path style="opacity:1;vector-effect:none;fill:#e52e76;fill-opacity:.62025314;fill-rule:evenodd;stroke:none;stroke-width:.28824854;stroke-linecap:butt;stroke-linejoin:miter;stroke-miterlimit:4;stroke-dasharray:none;stroke-dashoffset:0;stroke-opacity:1;paint-order:stroke markers fill;filter:url(#b)" transform="rotate(60 -20.761 12.287) scale(.9179)" d="M253.802 141.918h4.49v4.49h-4.49z"/><path style="opacity:1;vector-effect:none;fill:#e52e76;fill-opacity:.62025314;fill-rule:evenodd;stroke:none;stroke-width:.28824854;stroke-linecap:butt;stroke-linejoin:miter;stroke-miterlimit:4;stroke-dasharray:none;stroke-dashoffset:0;stroke-opacity:1;paint-order:stroke markers fill;filter:url(#c)" transform="rotate(30 -44.884 12.547) scale(.9179)" d="M147.417 250.627h4.49v4.49h-4.49z"/><path transform="rotate(60)" style="opacity:1;vector-effect:none;fill:#e52e76;fill-opacity:.62025314;fill-rule:evenodd;stroke:none;stroke-width:.26458338;stroke-linecap:butt;stroke-linejoin:miter;stroke-miterlimit:4;stroke-dasharray:none;stroke-dashoffset:0;stroke-opacity:1;paint-order:stroke markers fill" d="M253.987 142.102h4.121v4.121h-4.121z"/><path transform="rotate(30)" style="opacity:1;vector-effect:none;fill:#e52e76;fill-opacity:.62025314;fill-rule:evenodd;stroke:none;stroke-width:.26458338;stroke-linecap:butt;stroke-linejoin:miter;stroke-miterlimit:4;stroke-dasharray:none;stroke-dashoffset:0;stroke-opacity:1;paint-order:stroke markers fill" d="M147.601 250.812h4.121v4.121h-4.121z"/><path style="opacity:1;vector-effect:none;fill:url(#d);fill-opacity:1;fill-rule:evenodd;stroke:#000;stroke-width:.26458356;stroke-linecap:butt;stroke-linejoin:miter;stroke-miterlimit:4;stroke-dasharray:none;stroke-dashoffset:0;stroke-opacity:1;paint-order:stroke markers fill" d="m3.175 296.303-1.9-.84.48-1.633-.48-1.633 1.9-.84 1.9.84-.48 1.633.48 1.634z"/><path style="color:#000;font-style:normal;font-variant:normal;font-weight:400;font-stretch:normal;font-size:medium;line-height:normal;font-family:sans-serif;font-variant-ligatures:normal;font-variant-position:normal;font-variant-caps:normal;font-variant-numeric:normal;font-variant-alternates:normal;font-feature-settings:normal;text-indent:0;text-align:start;text-decoration:none;text-decoration-line:none;text-decoration-style:solid;text-decoration-color:#000;letter-spacing:normal;word-spacing:normal;text-transform:none;writing-mode:lr-tb;direction:ltr;text-orientation:mixed;dominant-baseline:auto;baseline-shift:baseline;text-anchor:start;white-space:normal;shape-padding:0;clip-rule:nonzero;display:inline;overflow:visible;visibility:visible;opacity:1;isolation:auto;mix-blend-mode:normal;color-interpolation:sRGB;color-interpolation-filters:linearRGB;solid-color:#000;solid-opacity:1;vector-effect:none;fill:#33ffec;fill-opacity:.88607597;fill-rule:evenodd;stroke:none;stroke-width:.57649708;stroke-linecap:butt;stroke-linejoin:miter;stroke-miterlimit:4;stroke-dasharray:none;stroke-dashoffset:0;stroke-opacity:1;paint-order:stroke markers fill;filter:url(#e);color-rendering:auto;image-rendering:auto;shape-rendering:auto;text-rendering:auto;enable-background:accumulate" d="M3.465 291.39c-.37 0-.692.214-.904.515a1.95 1.95 0 0 0-.332 1.125c0 .43.12.826.332 1.127.212.301.535.516.904.516.37 0 .69-.215.903-.516.212-.3.332-.696.332-1.127 0-.43-.12-.824-.332-1.125-.213-.3-.533-.515-.903-.515zm0 .529c.167 0 .33.093.469.29.14.198.236.491.236.821 0 .33-.097.625-.236.822-.14.198-.302.291-.469.291-.167 0-.331-.093-.47-.29a1.456 1.456 0 0 1-.237-.823c0-.33.097-.623.237-.82.139-.198.303-.291.47-.291z" transform="translate(-.005 24.389) scale(.9179)"/><ellipse style="opacity:1;vector-effect:none;fill:none;fill-opacity:1;fill-rule:evenodd;stroke:#33ffec;stroke-width:.5291667;stroke-linecap:butt;stroke-linejoin:miter;stroke-miterlimit:4;stroke-dasharray:none;stroke-dashoffset:0;stroke-opacity:.75527424;paint-order:stroke markers fill" cx="3.175" cy="293.361" rx=".891" ry="1.264"/><path style="color:#000;font-style:normal;font-variant:normal;font-weight:400;font-stretch:normal;font-size:medium;line-height:normal;font-family:sans-serif;font-variant-ligatures:normal;font-variant-position:normal;font-variant-caps:normal;font-variant-numeric:normal;font-variant-alternates:normal;font-feature-settings:normal;text-indent:0;text-align:start;text-decoration:none;text-decoration-line:none;text-decoration-style:solid;text-decoration-color:#000;letter-spacing:normal;word-spacing:normal;text-transform:none;writing-mode:lr-tb;direction:ltr;text-orientation:mixed;dominant-baseline:auto;baseline-shift:baseline;text-anchor:start;white-space:normal;shape-padding:0;clip-rule:nonzero;display:inline;overflow:visible;visibility:visible;opacity:1;isolation:auto;mix-blend-mode:normal;color-interpolation:sRGB;color-interpolation-filters:linearRGB;solid-color:#000;solid-opacity:1;vector-effect:none;fill:#33ffec;fill-opacity:.88607597;fill-rule:evenodd;stroke:none;stroke-width:.28824854;stroke-linecap:butt;stroke-linejoin:miter;stroke-miterlimit:4;stroke-dasharray:none;stroke-dashoffset:0;stroke-opacity:1;filter:url(#f);color-rendering:auto;image-rendering:auto;shape-rendering:auto;text-rendering:auto;enable-background:accumulate" d="m4.28 291.41-2.032 3.331 1.674.967.133-.229-1.44-.832 1.891-3.1z" transform="translate(-.005 24.389) scale(.9179)"/><path style="fill:none;fill-rule:evenodd;stroke:#33ffec;stroke-width:.26458335;stroke-linecap:butt;stroke-linejoin:miter;stroke-miterlimit:4;stroke-dasharray:none;stroke-opacity:.75527424" d="m4.027 291.937-1.8 2.952 1.429.825"/></g></svg>